Patient4_TMGait_0pt4_02_right_01_GRF.mot
version=1
nRows=32
nColumns=19
inDegrees=no
endheader
time	F1x	F1y	F1z	M1x	M1y	M1z	F2x	F2y	F2z	M2x	M2y	M2z	EC1x	EC1y	EC1z	EC2x	EC2y	EC2z
0.49	-3.9501	755.2742	41.8351	-259.2549	-51.0772	835.1475	-11.2776	-15.9084	5.5515	-3.3145	-1.5664	-21.7365	-0.0592	0.0182	-0.0073	-0.0462	0.0165	0.9585
0.504	-2.0994	747.311	44.5591	-256.9106	-51.1163	825.3836	-7.8382	-9.8692	3.6415	-1.9029	-0.86776	-13.6254	-0.0592	0.0182	-0.0073	-0.0462	0.0165	0.9585
0.518	0.072229	740.3519	46.6011	-254.85	-50.5175	815.8166	-4.8902	-4.768	2.0386	-0.70841	-0.29961	-6.7791	-0.0592	0.0182	-0.0073	-0.0462	0.0165	0.9585
0.532	2.4543	735.3627	47.9584	-253.3675	-49.431	807.5646	-2.6145	-0.88489	0.83041	0.2024	0.11655	-1.5777	-0.0592	0.0182	-0.0073	-0.0462	0.0165	0.9585
0.546	4.9104	732.9664	48.7742	-252.6594	-48.0797	801.4792	-1.0284	1.817	0.0096959	0.83734	0.39161	2.0294	-0.0592	0.0182	-0.0073	-0.0462	0.0165	0.9585
0.56	7.3128	733.4305	49.2506	-252.8174	-46.6907	798.0628	-0.031817	3.5033	-0.48446	1.2337	0.54878	4.2621	-0.0592	0.0182	-0.0073	-0.0462	0.0165	0.9585
0.574	9.5652	736.6861	49.565	-253.8289	-45.4296	797.4413	0.49112	4.3875	-0.73187	1.4383	0.62368	5.4189	-0.0592	0.0182	-0.0073	-0.0462	0.0165	0.9585
0.588	11.6107	742.3255	49.8293	-255.5692	-44.379	799.3312	0.66247	4.6705	-0.81017	1.4929	0.65179	5.784	-0.0592	0.0182	-0.0073	-0.0462	0.0165	0.9585
0.602	13.4126	749.6528	50.1031	-257.8134	-43.5598	803.0964	0.60332	4.5048	-0.79197	1.4249	0.6655	5.5717	-0.0592	0.0182	-0.0073	-0.0462	0.0165	0.9585
0.616	15.0034	757.8057	50.3897	-260.2735	-42.9218	807.874	0.39323	3.9962	-0.73116	1.2504	0.68994	4.932	-0.0592	0.0182	-0.0073	-0.0462	0.0165	0.9585
0.63	16.4664	765.8586	50.681	-262.6323	-42.3965	812.7024	0.11015	3.1864	-0.66715	0.96894	0.74064	3.9203	-0.0592	0.0182	-0.0073	-0.0462	0.0165	0.9585
0.644	17.8916	772.8944	50.9557	-264.5704	-41.9109	816.6131	-0.18334	2.0952	-0.61608	0.57462	0.81228	2.5651	-0.0592	0.0182	-0.0073	-0.0462	0.0165	0.9585
0.658	19.361	778.0667	51.2287	-265.7888	-41.4414	818.7074	-0.4252	0.73356	-0.58442	0.061788	0.88375	0.88404	-0.0592	0.0182	-0.0073	-0.0462	0.0165	0.9585
0.672	20.9242	780.7138	51.5358	-266.0511	-41.0007	818.292	-0.53296	-0.87453	-0.56703	-0.56093	0.91177	-1.0965	-0.0592	0.0182	-0.0073	-0.0462	0.0165	0.9585
0.686	22.6206	780.4906	51.9572	-265.2298	-40.6568	815.0203	-0.42189	-2.6069	-0.54537	-1.2443	0.83696	-3.2197	-0.0592	0.0182	-0.0073	-0.0462	0.0165	0.9585
0.7	24.4809	777.4501	52.5819	-263.3372	-40.4917	808.9689	0.033034	-4.1974	-0.50072	-1.8797	0.58873	-5.1619	-0.0592	0.0182	-0.0073	-0.0462	0.0165	0.9585
0.714	26.5169	772.0435	53.5108	-260.5234	-40.6102	800.6408	0.96757	-5.1674	-0.40241	-2.2739	0.081756	-6.3443	-0.0592	0.0182	-0.0073	-0.0462	0.0165	0.9585
0.728	28.7313	765.0382	54.788	-257.0513	-41.0621	790.8625	2.5032	-4.7791	-0.21113	-2.1282	-0.77286	-5.8661	-0.0592	0.0182	-0.0073	-0.0462	0.0165	0.9585
0.742	31.0991	757.3494	56.4181	-253.2352	-41.8604	780.6238	4.7383	-2.0115	0.11723	-1.0264	-2.0553	-2.4791	-0.0592	0.0182	-0.0073	-0.0462	0.0165	0.9585
0.756	33.5521	749.7352	58.3462	-249.3396	-42.9716	770.7462	7.6683	4.4367	0.61464	1.5602	-3.7899	5.4167	-0.0592	0.0182	-0.0073	-0.0462	0.0165	0.9585
0.77	35.9544	742.4828	60.4876	-245.4753	-44.3519	761.568	11.1119	16.024	1.3013	6.2268	-5.9175	19.6071	-0.0592	0.0182	-0.0073	-0.0462	0.0165	0.9585
0.784	38.1173	735.2215	62.6831	-241.5408	-45.9018	752.7544	14.6015	34.127	2.1521	13.5383	-8.2159	41.7692	-0.0592	0.0182	-0.0073	-0.0462	0.0165	0.9585
0.798	39.8095	726.8989	64.6909	-237.2199	-47.4515	743.2679	17.2667	59.6109	3.0841	23.8541	-10.2277	72.9529	-0.0592	0.0182	-0.0073	-0.0462	0.0165	0.9585
0.812	40.7784	716.0031	66.1999	-232.0559	-48.772	731.6091	17.7468	92.1686	3.9036	37.0643	-11.1773	112.7753	-0.0592	0.0182	-0.0073	-0.0462	0.0165	0.9585
0.826	40.8078	700.9471	66.8858	-225.5758	-49.6131	716.1821	14.7812	130.0353	4.2852	52.4436	-10.1715	159.1325	-0.0592	0.0182	-0.0073	-0.0462	0.0165	0.9585
0.84	39.8002	680.599	66.5267	-217.4597	-49.792	695.8113	8.2974	169.9084	3.8047	68.6207	-6.6979	208.0544	-0.0592	0.0182	-0.0073	-0.0462	0.0165	0.9585
0.854	37.8386	654.7547	65.0629	-207.6925	-49.2295	670.2137	0.070159	207.697	2.3745	83.9148	-1.4171	254.4712	-0.0592	0.0182	-0.0073	-0.0462	0.0165	0.9585
0.868	35.2327	624.2364	62.6576	-196.5928	-47.9861	640.0817	-7.9505	240.3193	0.066155	97.0579	4.7686	294.4678	-0.0592	0.0182	-0.0073	-0.0462	0.0165	0.9585
0.882	32.475	590.6155	59.5652	-184.7194	-46.1453	606.8126	-14.8484	267.1222	-2.9095	107.7751	11.226	327.1748	-0.0592	0.0182	-0.0073	-0.0462	0.0165	0.9585
0.896	30.058	555.5411	56.0292	-172.648	-43.7752	571.8909	-20.3988	289.4944	-6.2479	116.6281	17.5047	354.3009	-0.0592	0.0182	-0.0073	-0.0462	0.0165	0.9585
0.91	28.3098	520.048	52.1753	-160.7371	-40.8804	536.2356	-24.7911	309.6691	-9.6348	124.5303	23.3221	378.5876	-0.0592	0.0182	-0.0073	-0.0462	0.0165	0.9585
0.924	27.2678	484.4087	47.9916	-149.0739	-37.4262	500.0943	-28.2721	329.9511	-12.9294	132.4182	28.6153	402.8115	-0.0592	0.0182	-0.0073	-0.0462	0.0165	0.9585
